<?xml version="1.0" encoding="utf-8"?>
<!-- Generator: Adobe Illustrator 16.0.0, SVG Export Plug-In . SVG Version: 6.00 Build 0)  -->
<!DOCTYPE svg PUBLIC "-//W3C//DTD SVG 1.1//EN" "http://www.w3.org/Graphics/SVG/1.1/DTD/svg11.dtd">
<svg version="1.1" id="icons" xmlns="http://www.w3.org/2000/svg" xmlns:xlink="http://www.w3.org/1999/xlink" x="0px" y="0px"
	 width="64px" height="64px" viewBox="0 0 64 64" enable-background="new 0 0 64 64" xml:space="preserve">
<g>
	<path fill="#87BCF4" d="M24,42.03v5.46l-3,2.01l-3-1.01l-3,1.01l-3-2.01v-5.46c1.8,0.939,3.84,1.47,6,1.47S22.2,42.97,24,42.03z"/>
	<path fill="#5D9CEC" d="M35,54.5v6c0,0.55-0.45,1-1,1H2c-0.55,0-1-0.45-1-1v-0.01v-6c0-3.87,3.13-7,7-7v0.01l4-0.01l3,2.01l3-1.01
		l3,1.01l3-2.01l4,0.01C31.87,47.5,35,50.63,35,54.5z"/>
	<g>
		<path fill="#4A89DC" d="M28,47.5l-4-0.01l-0.011,0.008l1.008,0.002c3.87,0,7,3.13,7,7v6c0,0.55-0.45,1-1,1H34c0.55,0,1-0.45,1-1
			v-6C35,50.63,31.87,47.5,28,47.5z"/>
	</g>
	<path fill="#ED5565" d="M60,36.499c0.55,0,1,0.45,1,1V39.5c0,0.55-0.45,1-1,1H40c-0.55,0-1-0.45-1-1v-2.001c0-0.55,0.45-1,1-1H60z"
		/>
	<path fill="#E6E9ED" d="M60,40.5l-2,21H42l-2-21H60z M54,50.5c0-2.21-1.79-4-4-4s-4,1.79-4,4s1.79,4,4,4S54,52.71,54,50.5z"/>
	<circle fill="#ED5565" cx="50" cy="50.5" r="4"/>
	<polygon fill="#DA4453" points="60,36.489 60,36.499 40,36.499 40,36.489 40,35.49 60,33.49 	"/>
	<path fill="#965353" d="M8,23.5l-3,3v-5c0-6.64,5.37-12,12-12h8v4c3.32,0,6,2.68,6,6v7l-3-3c0,0-4.57,2-10,2S8,23.5,8,23.5z"/>
	<path fill="#844747" d="M31,26.5v-7c0-3.32-2.68-6-6-6v-4h-3v4c0,1.657,1.343,3,3,3c1.654,0,3,1.346,3,3v4L31,26.5z"/>
	<path fill="#EAC6BB" d="M31,26.5v4c0,5.02-2.84,9.37-7,11.53c-1.8,0.939-3.84,1.47-6,1.47s-4.2-0.53-6-1.47
		C7.84,39.87,5,35.52,5,30.5v-4l3-3c0,0,4.57,2,10,2s10-2,10-2L31,26.5z"/>
	<path fill="#D3B1A9" d="M28,23.5l-0.003,0.001V30.5c0,5.02-2.84,9.37-7,11.53c-1.376,0.719-2.895,1.192-4.498,1.378
		C16.992,43.465,17.492,43.5,18,43.5c2.16,0,4.2-0.53,6-1.47c4.16-2.16,7-6.511,7-11.53v-4L28,23.5z"/>
	<g>
		<g>
			<path fill="#4A89DC" d="M18.03,54.496c-0.553,0-1.005-0.447-1.005-1s0.442-1,0.994-1h0.011c0.552,0,1,0.447,1,1
				S18.582,54.496,18.03,54.496z"/>
		</g>
		<g>
			<path fill="#4A89DC" d="M18.03,58.496c-0.553,0-1.005-0.447-1.005-1s0.442-1,0.994-1h0.011c0.552,0,1,0.447,1,1
				S18.582,58.496,18.03,58.496z"/>
		</g>
	</g>
	<path fill="#FFCE54" d="M62,2.5H38.002c-0.553,0-1,0.447-1,1v23c0,0.553,0.447,1,1,1h2v2c0,0.36,0.193,0.692,0.508,0.87
		c0.152,0.087,0.322,0.13,0.492,0.13c0.179,0,0.356-0.048,0.515-0.143l4.762-2.857H62c0.553,0,1-0.447,1-1v-23
		C63,2.947,62.553,2.5,62,2.5z M43.69,13.08l4.359-0.63L50,8.5l1.95,3.95l4.359,0.63l-3.149,3.08l0.74,4.34L50,18.45l-3.9,2.05
		l0.75-4.34L43.69,13.08z"/>
	<path fill="#ED5565" d="M57.26,12.774c-0.118-0.361-0.431-0.625-0.808-0.68l-3.839-0.558l-1.716-3.479
		c-0.336-0.684-1.457-0.684-1.793,0l-1.716,3.479l-3.839,0.558c-0.377,0.055-0.689,0.318-0.808,0.68
		c-0.117,0.362-0.02,0.76,0.253,1.025l2.776,2.709l-0.658,3.821c-0.064,0.375,0.089,0.755,0.397,0.979
		c0.174,0.127,0.381,0.191,0.588,0.191c0.159,0,0.318-0.038,0.465-0.114l3.438-1.805l3.43,1.804
		c0.338,0.179,0.745,0.148,1.054-0.075c0.308-0.224,0.462-0.603,0.397-0.978l-0.652-3.822l2.777-2.71
		C57.279,13.534,57.377,13.137,57.26,12.774z"/>
</g>
</svg>
